<svg width="1314" height="920" viewBox="0 0 1314 920" fill="none" xmlns="http://www.w3.org/2000/svg">
<path d="M176.954 395.389C176.384 395.39 175.837 395.617 175.434 396.02C175.03 396.424 174.803 396.971 174.803 397.541V483.486C174.803 484.057 175.03 484.603 175.434 485.007C175.837 485.41 176.384 485.637 176.954 485.638H191.544C192.114 485.637 192.661 485.41 193.064 485.007C193.468 484.603 193.695 484.057 193.695 483.486V397.541C193.695 396.971 193.468 396.424 193.064 396.02C192.661 395.617 192.114 395.39 191.544 395.389H176.954Z" fill="#3F3D56"/>
<path d="M298.279 395.389C297.709 395.39 297.162 395.617 296.758 396.02C296.355 396.424 296.128 396.971 296.127 397.541V483.486C296.128 484.057 296.355 484.603 296.758 485.007C297.162 485.41 297.709 485.637 298.279 485.638H312.868C313.439 485.637 313.986 485.41 314.389 485.007C314.792 484.603 315.019 484.057 315.02 483.486V397.541C315.019 396.971 314.792 396.424 314.389 396.02C313.986 395.617 313.439 395.39 312.868 395.389H298.279Z" fill="#3F3D56"/>
<path d="M366.441 327.106L254.576 318.469L343.821 333.686L365.208 329.985L366.441 327.106Z" fill="#3F3D56"/>
<path d="M344.644 332.332L366.03 328.631L366.24 328.141L367.264 328.22L366.03 331.099L344.644 334.8L255.399 318.469L281.847 321.625L344.644 332.332Z" fill="white"/>
<path d="M113.099 327.106L1.23364 318.469L90.4795 333.686L111.866 329.985L113.099 327.106Z" fill="#3F3D56"/>
<path d="M89.2458 332.332L110.632 328.631L110.842 328.141L111.866 328.22L110.632 331.099L89.2458 334.8L0 318.469L26.4478 321.625L89.2458 332.332Z" fill="white"/>
<path d="M385.36 371.934L375.901 372.346L289.242 408.907L284.282 413.061L268.559 426.222H219.207L204.344 413.061L198.693 408.056L115.567 372.757L108.164 371.934L132.84 360.007H132.972C138.565 354.698 187.005 350.548 245.94 350.548C304.875 350.548 353.314 354.698 358.907 360.007H359.45L385.36 371.934Z" fill="#3F3D56"/>
<path d="M132.162 360.617C132.338 360.124 132.428 359.605 132.429 359.081V339.548C132.429 338.32 131.941 337.143 131.073 336.275C130.206 335.408 129.029 334.92 127.801 334.92H125.922C127.465 333.363 128.512 331.384 128.933 329.233C129.353 327.082 129.127 324.854 128.284 322.831C127.44 320.808 126.017 319.08 124.193 317.864C122.369 316.649 120.226 316 118.034 316C115.842 316 113.7 316.649 111.876 317.864C110.052 319.08 108.629 320.808 107.785 322.831C106.942 324.854 106.716 327.082 107.136 329.233C107.556 331.384 108.604 333.363 110.146 334.92H108.268C107.66 334.92 107.058 335.04 106.497 335.272C105.935 335.505 105.425 335.846 104.995 336.275C104.566 336.705 104.225 337.215 103.992 337.777C103.76 338.338 103.64 338.94 103.64 339.548V359.081C103.64 359.881 103.848 360.667 104.244 361.362C102.847 361.607 101.451 361.873 100.054 362.18C99.2031 362.37 98.4426 362.845 97.8982 363.526C97.3538 364.207 97.0579 365.053 97.0596 365.925V370.566C97.0596 371.583 97.4637 372.559 98.183 373.278C98.9024 373.998 99.878 374.402 100.895 374.402H144.356V362.886C140.343 361.876 136.27 361.118 132.162 360.617V360.617Z" fill="#3F3D56"/>
<path d="M389.357 362.18C387.961 361.873 386.564 361.607 385.167 361.362C385.563 360.667 385.772 359.881 385.771 359.081V339.548C385.771 338.94 385.652 338.338 385.419 337.777C385.186 337.215 384.846 336.705 384.416 336.275C383.986 335.846 383.476 335.505 382.915 335.272C382.353 335.04 381.751 334.92 381.144 334.92H379.265C380.808 333.363 381.855 331.384 382.275 329.233C382.695 327.082 382.47 324.854 381.626 322.831C380.783 320.808 379.359 319.08 377.535 317.864C375.712 316.649 373.569 316 371.377 316C369.185 316 367.042 316.649 365.218 317.864C363.394 319.08 361.971 320.808 361.128 322.831C360.284 324.854 360.058 327.082 360.478 329.233C360.899 331.384 361.946 333.363 363.489 334.92H361.61C361.002 334.92 360.401 335.04 359.839 335.272C359.278 335.505 358.767 335.846 358.338 336.275C357.908 336.705 357.567 337.215 357.335 337.777C357.102 338.338 356.982 338.94 356.982 339.548V359.081C356.983 359.605 357.073 360.124 357.249 360.617C353.141 361.118 349.069 361.876 345.056 362.886V374.402H388.516C389.533 374.402 390.509 373.998 391.228 373.278C391.947 372.559 392.352 371.583 392.352 370.566V365.925C392.353 365.053 392.057 364.207 391.513 363.526C390.969 362.845 390.208 362.37 389.357 362.18V362.18Z" fill="#3F3D56"/>
<path d="M376.312 327.106L488.177 318.469L398.932 333.686L377.546 329.985L376.312 327.106Z" fill="#3F3D56"/>
<path d="M252.56 422.521H235.206C234.563 422.521 233.927 422.647 233.333 422.893C232.739 423.139 232.199 423.5 231.745 423.954C231.29 424.409 230.93 424.948 230.684 425.542C230.438 426.136 230.311 426.772 230.311 427.415V431.198C230.312 432.191 230.615 433.161 231.18 433.978C231.745 434.795 232.546 435.421 233.476 435.772C232.758 436.633 232.366 437.719 232.368 438.84V439.925C232.367 440.699 232.554 441.461 232.912 442.146C233.27 442.832 233.789 443.421 234.424 443.863V458.301H253.342V443.863C253.977 443.421 254.496 442.832 254.854 442.146C255.212 441.461 255.399 440.699 255.399 439.925V438.84C255.4 437.719 255.008 436.633 254.29 435.772C255.22 435.421 256.021 434.795 256.586 433.978C257.151 433.161 257.454 432.191 257.455 431.198V427.415C257.455 426.773 257.328 426.136 257.082 425.542C256.836 424.948 256.476 424.409 256.021 423.954C255.567 423.5 255.027 423.139 254.433 422.893C253.84 422.647 253.203 422.521 252.56 422.521V422.521Z" fill="#3F3D56"/>
<path d="M226.247 456.258C225.474 456.259 224.734 456.566 224.187 457.112C223.641 457.659 223.333 458.399 223.333 459.172V482.518C223.333 483.29 223.641 484.031 224.187 484.578C224.733 485.124 225.474 485.431 226.247 485.432H261.519C262.292 485.431 263.033 485.124 263.579 484.577C264.125 484.031 264.433 483.29 264.434 482.518V459.172C264.433 458.399 264.125 457.659 263.579 457.112C263.033 456.566 262.292 456.259 261.519 456.258H226.247Z" fill="white"/>
<path d="M284.282 413.061L268.559 426.222H219.207L204.344 413.061H219.125L219.77 409.841C219.96 408.894 220.471 408.042 221.218 407.429C221.965 406.816 222.901 406.481 223.867 406.481H265.133C266.099 406.481 267.035 406.816 267.782 407.429C268.529 408.042 269.04 408.894 269.23 409.841L269.875 413.061H284.282Z" fill="white"/>
<path d="M243.883 482.36C250.243 482.36 255.399 477.205 255.399 470.845C255.399 464.485 250.243 459.329 243.883 459.329C237.523 459.329 232.368 464.485 232.368 470.845C232.368 477.205 237.523 482.36 243.883 482.36Z" fill="#3F3D56"/>
<path d="M243.883 477.425C247.517 477.425 250.463 474.479 250.463 470.845C250.463 467.211 247.517 464.264 243.883 464.264C240.249 464.264 237.303 467.211 237.303 470.845C237.303 474.479 240.249 477.425 243.883 477.425Z" fill="#E6E6E6"/>
<path d="M247.861 465.611C248.826 466.876 249.299 468.449 249.193 470.036C249.087 471.624 248.408 473.119 247.283 474.244C246.158 475.37 244.662 476.048 243.075 476.155C241.487 476.261 239.915 475.788 238.65 474.822C239.217 475.571 239.938 476.189 240.764 476.635C241.591 477.081 242.503 477.346 243.44 477.41C244.377 477.474 245.316 477.337 246.196 477.007C247.075 476.678 247.874 476.163 248.538 475.499C249.202 474.835 249.716 474.037 250.045 473.157C250.375 472.278 250.512 471.338 250.448 470.401C250.384 469.465 250.12 468.552 249.673 467.726C249.227 466.9 248.609 466.179 247.861 465.611V465.611Z" fill="white"/>
<path d="M392.557 367.086H97.2654V368.969H392.557V367.086Z" fill="#E6E6E6"/>
<path d="M399.755 332.332L378.368 328.631L378.158 328.141L377.135 328.22L378.368 331.099L399.755 334.8L489 318.469L462.552 321.625L399.755 332.332Z" fill="white"/>
<path d="M122.969 327.106L234.835 318.469L145.589 333.686L124.204 329.985L122.969 327.106Z" fill="#3F3D56"/>
<path d="M146.823 332.332L125.437 328.631L125.227 328.141L124.204 328.22L125.437 331.099L146.823 334.8L236.069 318.469L209.621 321.625L146.823 332.332Z" fill="white"/>
<path d="M260.951 409.977H228.049V416.557H260.951V409.977Z" fill="#E6E6E6"/>
<path d="M353.275 680.629C380.047 680.629 401.75 658.926 401.75 632.153C401.75 605.381 380.047 583.678 353.275 583.678C326.503 583.678 304.8 605.381 304.8 632.153C304.8 658.926 326.503 680.629 353.275 680.629Z" fill="#FF6584"/>
<path d="M452.547 905.963H452.498C450.791 905.961 449.154 905.282 447.948 904.075C446.741 902.868 446.062 901.232 446.06 899.525V521.569C446.062 519.862 446.741 518.226 447.948 517.019C449.154 515.812 450.791 515.133 452.498 515.131H770.617C772.324 515.133 773.96 515.812 775.167 517.019C776.374 518.226 777.053 519.862 777.055 521.569V815.451C777.053 817.149 776.381 818.778 775.185 819.983C773.988 821.189 772.365 821.873 770.667 821.888L452.547 905.963Z" fill="#F2F2F2"/>
<path d="M687.679 461.733H539.98V376.144C539.983 374.336 540.701 372.604 541.979 371.326C543.257 370.048 544.99 369.329 546.797 369.327H680.862C682.669 369.329 684.402 370.048 685.68 371.326C686.958 372.604 687.676 374.336 687.679 376.144V461.733ZM541.495 460.218H686.164V376.144C686.162 374.738 685.603 373.39 684.609 372.396C683.615 371.402 682.267 370.843 680.862 370.842H546.797C545.392 370.843 544.044 371.402 543.05 372.396C542.056 373.39 541.497 374.738 541.495 376.144V460.218Z" fill="#3F3D56"/>
<path d="M582.018 401.896H645.641C647.249 401.896 648.79 402.534 649.926 403.671C651.062 404.807 651.701 406.348 651.701 407.955V498.847H575.958V407.955C575.958 406.348 576.597 404.807 577.733 403.671C578.869 402.534 580.411 401.896 582.018 401.896Z" fill="#E6E6E6"/>
<path d="M594.515 370.842H563.461V339.787C563.462 338.783 563.861 337.82 564.571 337.11C565.281 336.401 566.244 336.001 567.248 336H590.728C591.732 336.001 592.695 336.401 593.405 337.11C594.115 337.82 594.514 338.783 594.515 339.787V370.842ZM564.976 369.327H593V339.787C593 339.185 592.76 338.607 592.334 338.181C591.908 337.755 591.33 337.516 590.728 337.515H567.248C566.645 337.516 566.068 337.755 565.642 338.181C565.216 338.607 564.976 339.185 564.976 339.787V369.327Z" fill="#3F3D56"/>
<path d="M849.7 827.448C849.398 827.448 849.104 827.448 848.802 827.44C830.064 827.233 812.046 820.191 798.134 807.636C797.62 807.168 797.11 806.693 796.604 806.213L796.369 805.989V660.827L796.441 660.673C796.943 659.61 797.451 658.562 797.96 657.515C813.715 625.529 832.089 607.916 849.7 607.916C875.096 607.916 894.792 642.753 904.272 663.518C917.455 692.394 926.662 728.175 926.662 750.532C926.656 770.785 918.664 790.218 904.42 804.617C890.177 819.015 870.831 827.216 850.579 827.441C850.296 827.448 849.994 827.448 849.7 827.448ZM797.884 805.339C798.304 805.736 798.727 806.127 799.151 806.513C812.792 818.822 830.458 825.725 848.829 825.926C849.136 825.933 849.426 825.925 849.72 825.933C849.995 825.933 850.276 825.933 850.551 825.926C891.688 825.47 925.147 791.648 925.147 750.532C925.147 728.369 915.996 692.847 902.894 664.147C893.565 643.712 874.249 609.431 849.7 609.431C832.697 609.431 814.805 626.743 799.321 658.18C798.841 659.169 798.359 660.161 797.884 661.166L797.884 805.339Z" fill="#3F3D56"/>
<path d="M849.696 919.284C849.465 919.284 849.243 919.193 849.08 919.029C848.916 918.866 848.824 918.644 848.824 918.413V740.518C848.824 740.403 848.846 740.289 848.889 740.183C848.933 740.076 848.997 739.98 849.078 739.898C849.159 739.817 849.255 739.752 849.361 739.708C849.467 739.664 849.581 739.641 849.696 739.641C849.811 739.641 849.925 739.664 850.031 739.708C850.137 739.752 850.233 739.817 850.314 739.898C850.395 739.98 850.459 740.076 850.502 740.183C850.546 740.289 850.568 740.403 850.567 740.518V918.413C850.567 918.644 850.475 918.866 850.312 919.029C850.149 919.193 849.927 919.284 849.696 919.284V919.284Z" fill="#CCCCCC"/>
<path d="M397.513 919.284C397.282 919.284 397.06 919.193 396.896 919.029C396.733 918.866 396.641 918.644 396.641 918.413V740.518C396.641 740.403 396.663 740.289 396.706 740.183C396.75 740.076 396.814 739.98 396.895 739.898C396.976 739.817 397.072 739.752 397.178 739.708C397.284 739.664 397.398 739.641 397.513 739.641C397.628 739.641 397.741 739.664 397.847 739.708C397.953 739.752 398.05 739.817 398.131 739.898C398.212 739.98 398.276 740.076 398.319 740.183C398.363 740.289 398.385 740.403 398.384 740.518V918.413C398.384 918.644 398.292 918.866 398.129 919.029C397.965 919.193 397.744 919.284 397.513 919.284V919.284Z" fill="#CCCCCC"/>
<path d="M849.696 773.755C849.571 773.755 849.448 773.728 849.334 773.676C849.22 773.625 849.119 773.549 849.037 773.454L805.21 722.911C805.059 722.737 804.984 722.509 805 722.279C805.017 722.049 805.124 721.834 805.299 721.683C805.473 721.532 805.7 721.456 805.931 721.472C806.161 721.488 806.375 721.595 806.527 721.769L850.354 772.312C850.464 772.439 850.535 772.594 850.558 772.759C850.582 772.924 850.558 773.093 850.489 773.245C850.419 773.397 850.308 773.526 850.167 773.616C850.027 773.707 849.863 773.755 849.696 773.755V773.755Z" fill="#CCCCCC"/>
<path d="M849.696 802.924C849.524 802.924 849.355 802.873 849.212 802.777C849.069 802.681 848.957 802.545 848.891 802.386C848.825 802.227 848.808 802.052 848.841 801.883C848.875 801.714 848.958 801.558 849.08 801.436L873.983 776.532C874.147 776.37 874.368 776.279 874.599 776.279C874.83 776.279 875.051 776.371 875.214 776.534C875.377 776.697 875.469 776.918 875.469 777.149C875.469 777.38 875.378 777.601 875.216 777.765L850.312 802.669C850.231 802.75 850.135 802.814 850.03 802.858C849.924 802.902 849.81 802.924 849.696 802.924V802.924Z" fill="#CCCCCC"/>
<path d="M930.322 919.645H865.179V918.887C865.177 914.609 866.018 910.371 867.654 906.418C869.29 902.464 871.689 898.872 874.714 895.846C877.738 892.819 881.33 890.419 885.282 888.781C889.235 887.143 893.472 886.3 897.75 886.3C902.029 886.3 906.266 887.143 910.219 888.781C914.171 890.419 917.763 892.819 920.787 895.846C923.812 898.872 926.211 902.464 927.847 906.418C929.483 910.371 930.324 914.609 930.322 918.887L930.322 919.645ZM866.703 918.13H928.798C928.6 910.027 925.242 902.322 919.441 896.661C913.64 891 905.856 887.831 897.75 887.831C889.645 887.831 881.861 891 876.06 896.661C870.259 902.322 866.901 910.027 866.703 918.13H866.703Z" fill="#3F3D56"/>
<path d="M897.75 900.401C897.522 900.401 897.304 900.491 897.142 900.652C896.981 900.814 896.89 901.032 896.89 901.26V910.395L887.993 902.758C887.907 902.684 887.808 902.627 887.7 902.592C887.593 902.557 887.479 902.543 887.367 902.551C887.254 902.56 887.144 902.59 887.043 902.641C886.942 902.692 886.852 902.763 886.778 902.849C886.705 902.934 886.649 903.034 886.614 903.141C886.578 903.249 886.565 903.362 886.573 903.475C886.582 903.588 886.613 903.698 886.664 903.799C886.716 903.899 886.786 903.989 886.872 904.062L896.89 912.661V918.027C896.89 918.14 896.912 918.252 896.955 918.357C896.998 918.462 897.062 918.557 897.141 918.637C897.221 918.717 897.316 918.781 897.421 918.824C897.525 918.867 897.637 918.89 897.75 918.89C897.863 918.89 897.975 918.867 898.08 918.824C898.184 918.781 898.279 918.717 898.359 918.637C898.439 918.557 898.502 918.462 898.545 918.357C898.589 918.252 898.611 918.14 898.61 918.027V901.26C898.61 901.032 898.52 900.814 898.358 900.652C898.197 900.491 897.978 900.401 897.75 900.401Z" fill="#3F3D56"/>
<path d="M384.218 919.645H319.075V918.887C319.073 914.609 319.914 910.371 321.55 906.418C323.186 902.464 325.585 898.872 328.61 895.846C331.634 892.819 335.226 890.419 339.178 888.781C343.131 887.143 347.368 886.3 351.646 886.3C355.925 886.3 360.162 887.143 364.115 888.781C368.067 890.419 371.659 892.819 374.683 895.846C377.708 898.872 380.107 902.464 381.743 906.418C383.379 910.371 384.22 914.609 384.218 918.887L384.218 919.645ZM320.599 918.13H382.694C382.496 910.027 379.138 902.322 373.337 896.661C367.536 891 359.752 887.831 351.646 887.831C343.541 887.831 335.757 891 329.956 896.661C324.155 902.322 320.797 910.027 320.599 918.13H320.599Z" fill="#3F3D56"/>
<path d="M351.646 900.401C351.418 900.401 351.2 900.491 351.038 900.652C350.877 900.814 350.786 901.032 350.786 901.26V910.395L341.889 902.758C341.803 902.684 341.704 902.627 341.596 902.592C341.489 902.557 341.375 902.543 341.263 902.551C341.15 902.56 341.04 902.59 340.939 902.641C340.838 902.692 340.748 902.763 340.674 902.849C340.601 902.934 340.545 903.034 340.51 903.141C340.474 903.249 340.461 903.362 340.469 903.475C340.478 903.588 340.509 903.698 340.56 903.799C340.612 903.899 340.682 903.989 340.768 904.062L350.786 912.661V918.027C350.786 918.14 350.808 918.252 350.851 918.357C350.894 918.462 350.957 918.557 351.037 918.637C351.117 918.717 351.212 918.781 351.317 918.824C351.421 918.867 351.533 918.89 351.646 918.89C351.759 918.89 351.871 918.867 351.976 918.824C352.08 918.781 352.175 918.717 352.255 918.637C352.335 918.557 352.398 918.462 352.441 918.357C352.485 918.252 352.507 918.14 352.506 918.027V901.26C352.506 901.032 352.416 900.814 352.254 900.652C352.093 900.491 351.874 900.401 351.646 900.401V900.401Z" fill="#3F3D56"/>
<path d="M398.274 827.448C397.972 827.448 397.678 827.448 397.376 827.44C377.127 827.212 357.784 819.009 343.543 804.611C329.302 790.214 321.311 770.782 321.304 750.532C321.304 728.175 330.512 692.394 343.695 663.518C353.176 642.753 372.873 607.916 398.274 607.916C408.736 607.916 419.272 613.879 429.587 625.64C430.099 626.22 430.611 626.817 431.117 627.43L431.29 627.64V820.015L430.863 820.222C430.353 820.469 429.836 820.701 429.319 820.925C419.813 825.131 409.547 827.349 399.153 827.441C398.87 827.448 398.568 827.448 398.274 827.448ZM398.274 609.431C373.72 609.431 354.403 643.712 345.073 664.147C331.97 692.846 322.819 728.369 322.819 750.532C322.819 791.641 356.278 825.462 397.404 825.926C397.71 825.933 397.996 825.936 398.294 825.933C398.569 825.933 398.851 825.933 399.125 825.926C409.32 825.837 419.389 823.663 428.711 819.537C429.069 819.382 429.424 819.225 429.775 819.062V628.185C429.337 627.658 428.893 627.144 428.45 626.64C418.433 615.22 408.281 609.431 398.274 609.431V609.431Z" fill="#3F3D56"/>
<path d="M398.271 773.755C398.146 773.755 398.022 773.728 397.908 773.676C397.795 773.625 397.693 773.549 397.612 773.454L353.784 722.911C353.633 722.737 353.558 722.509 353.575 722.279C353.591 722.049 353.698 721.834 353.873 721.683C354.047 721.532 354.275 721.456 354.505 721.472C354.735 721.488 354.95 721.595 355.101 721.769L398.929 772.312C399.038 772.439 399.109 772.594 399.133 772.759C399.156 772.924 399.132 773.093 399.063 773.245C398.994 773.397 398.882 773.526 398.742 773.616C398.601 773.707 398.438 773.755 398.271 773.755V773.755Z" fill="#CCCCCC"/>
<path d="M398.27 802.924C398.098 802.924 397.929 802.873 397.786 802.777C397.643 802.681 397.531 802.545 397.465 802.386C397.399 802.227 397.382 802.052 397.416 801.883C397.449 801.714 397.532 801.558 397.654 801.436L422.558 776.532C422.721 776.37 422.943 776.279 423.173 776.279C423.404 776.279 423.625 776.371 423.788 776.534C423.951 776.697 424.043 776.918 424.043 777.149C424.044 777.38 423.953 777.601 423.79 777.765L398.886 802.669C398.806 802.75 398.71 802.814 398.604 802.858C398.498 802.902 398.385 802.924 398.27 802.924Z" fill="#CCCCCC"/>
<path d="M466.707 467.792L467.268 468.898C467.516 469.375 467.646 469.905 467.646 470.443V500.361H494.156V470.443C494.157 469.905 494.287 469.375 494.535 468.898L495.096 467.792H466.707ZM492.641 470.443V498.847H469.161V470.443C469.162 470.06 469.116 469.679 469.025 469.307H492.778C492.687 469.679 492.641 470.06 492.641 470.443V470.443ZM500.034 467.792L500.594 468.898C500.843 469.375 500.973 469.905 500.973 470.443V500.361H527.483V470.443C527.483 469.905 527.613 469.375 527.862 468.898L528.422 467.792H500.034ZM525.968 470.443V498.847H502.488V470.443C502.488 470.06 502.443 469.679 502.352 469.307H526.105C526.014 469.679 525.968 470.06 525.968 470.443V470.443ZM533.361 467.792L533.921 468.898C534.17 469.375 534.3 469.905 534.3 470.443V500.361H560.81V470.443C560.81 469.905 560.94 469.375 561.189 468.898L561.749 467.792H533.361ZM559.295 470.443V498.847H535.815V470.443C535.815 470.06 535.769 469.679 535.678 469.307H559.431C559.34 469.679 559.295 470.06 559.295 470.443ZM566.687 467.792L567.248 468.898C567.496 469.375 567.626 469.905 567.627 470.443V500.361H594.137V470.443C594.137 469.905 594.267 469.375 594.515 468.898L595.076 467.792H566.687ZM592.622 470.443V498.847H569.142V470.443C569.142 470.06 569.096 469.679 569.005 469.307H592.758C592.667 469.679 592.621 470.06 592.622 470.443ZM600.014 467.792L600.575 468.898C600.823 469.375 600.953 469.905 600.953 470.443V500.361H627.463V470.443C627.464 469.905 627.594 469.375 627.842 468.898L628.403 467.792H600.014ZM625.948 470.443V498.847H602.468V470.443C602.469 470.06 602.423 469.679 602.332 469.307H626.085C625.994 469.679 625.948 470.06 625.948 470.443V470.443ZM633.341 467.792L633.901 468.898C634.15 469.375 634.28 469.905 634.28 470.443V500.361H660.79V470.443C660.79 469.905 660.92 469.375 661.169 468.898L661.729 467.792H633.341ZM659.275 470.443V498.847H635.795V470.443C635.795 470.06 635.75 469.679 635.659 469.307H659.412C659.321 469.679 659.275 470.06 659.275 470.443V470.443ZM666.667 467.792L667.228 468.898C667.477 469.375 667.607 469.905 667.607 470.443V500.361H694.117V470.443C694.117 469.905 694.247 469.375 694.495 468.898L695.056 467.792H666.667ZM692.602 470.443V498.847H669.122V470.443C669.122 470.06 669.076 469.679 668.985 469.307H692.738C692.647 469.679 692.602 470.06 692.602 470.443ZM699.994 467.792L700.555 468.898C700.803 469.375 700.933 469.905 700.934 470.443V500.361H727.444V470.443C727.444 469.905 727.574 469.375 727.822 468.898L728.383 467.792H699.994ZM725.929 470.443V498.847H702.448V470.443C702.449 470.06 702.403 469.679 702.312 469.307H726.065C725.974 469.679 725.928 470.06 725.929 470.443ZM733.321 467.792L733.882 468.898C734.13 469.375 734.26 469.905 734.26 470.443V500.361H760.77V470.443C760.771 469.905 760.9 469.375 761.149 468.898L761.71 467.792H733.321ZM759.255 470.443V498.847H735.775V470.443C735.776 470.06 735.73 469.679 735.639 469.307H759.392C759.301 469.679 759.255 470.06 759.255 470.443ZM733.321 467.792L733.882 468.898C734.13 469.375 734.26 469.905 734.26 470.443V500.361H760.77V470.443C760.771 469.905 760.9 469.375 761.149 468.898L761.71 467.792H733.321ZM759.255 470.443V498.847H735.775V470.443C735.776 470.06 735.73 469.679 735.639 469.307H759.392C759.301 469.679 759.255 470.06 759.255 470.443ZM699.994 467.792L700.555 468.898C700.803 469.375 700.933 469.905 700.934 470.443V500.361H727.444V470.443C727.444 469.905 727.574 469.375 727.822 468.898L728.383 467.792H699.994ZM725.929 470.443V498.847H702.448V470.443C702.449 470.06 702.403 469.679 702.312 469.307H726.065C725.974 469.679 725.928 470.06 725.929 470.443ZM666.667 467.792L667.228 468.898C667.477 469.375 667.607 469.905 667.607 470.443V500.361H694.117V470.443C694.117 469.905 694.247 469.375 694.495 468.898L695.056 467.792H666.667ZM692.602 470.443V498.847H669.122V470.443C669.122 470.06 669.076 469.679 668.985 469.307H692.738C692.647 469.679 692.602 470.06 692.602 470.443ZM633.341 467.792L633.901 468.898C634.15 469.375 634.28 469.905 634.28 470.443V500.361H660.79V470.443C660.79 469.905 660.92 469.375 661.169 468.898L661.729 467.792H633.341ZM659.275 470.443V498.847H635.795V470.443C635.795 470.06 635.75 469.679 635.659 469.307H659.412C659.321 469.679 659.275 470.06 659.275 470.443V470.443ZM600.014 467.792L600.575 468.898C600.823 469.375 600.953 469.905 600.953 470.443V500.361H627.463V470.443C627.464 469.905 627.594 469.375 627.842 468.898L628.403 467.792H600.014ZM625.948 470.443V498.847H602.468V470.443C602.469 470.06 602.423 469.679 602.332 469.307H626.085C625.994 469.679 625.948 470.06 625.948 470.443V470.443ZM566.687 467.792L567.248 468.898C567.496 469.375 567.626 469.905 567.627 470.443V500.361H594.137V470.443C594.137 469.905 594.267 469.375 594.515 468.898L595.076 467.792H566.687ZM592.622 470.443V498.847H569.142V470.443C569.142 470.06 569.096 469.679 569.005 469.307H592.758C592.667 469.679 592.621 470.06 592.622 470.443ZM533.361 467.792L533.921 468.898C534.17 469.375 534.3 469.905 534.3 470.443V500.361H560.81V470.443C560.81 469.905 560.94 469.375 561.189 468.898L561.749 467.792H533.361ZM559.295 470.443V498.847H535.815V470.443C535.815 470.06 535.769 469.679 535.678 469.307H559.431C559.34 469.679 559.295 470.06 559.295 470.443ZM500.034 467.792L500.594 468.898C500.843 469.375 500.973 469.905 500.973 470.443V500.361H527.483V470.443C527.483 469.905 527.613 469.375 527.862 468.898L528.422 467.792H500.034ZM525.968 470.443V498.847H502.488V470.443C502.488 470.06 502.443 469.679 502.352 469.307H526.105C526.014 469.679 525.968 470.06 525.968 470.443V470.443ZM466.707 467.792L467.268 468.898C467.516 469.375 467.646 469.905 467.646 470.443V500.361H494.156V470.443C494.157 469.905 494.287 469.375 494.535 468.898L495.096 467.792H466.707ZM492.641 470.443V498.847H469.161V470.443C469.162 470.06 469.116 469.679 469.025 469.307H492.778C492.687 469.679 492.641 470.06 492.641 470.443V470.443ZM733.321 467.792L733.882 468.898C734.13 469.375 734.26 469.905 734.26 470.443V500.361H760.77V470.443C760.771 469.905 760.9 469.375 761.149 468.898L761.71 467.792H733.321ZM759.255 470.443V498.847H735.775V470.443C735.776 470.06 735.73 469.679 735.639 469.307H759.392C759.301 469.679 759.255 470.06 759.255 470.443ZM699.994 467.792L700.555 468.898C700.803 469.375 700.933 469.905 700.934 470.443V500.361H727.444V470.443C727.444 469.905 727.574 469.375 727.822 468.898L728.383 467.792H699.994ZM725.929 470.443V498.847H702.448V470.443C702.449 470.06 702.403 469.679 702.312 469.307H726.065C725.974 469.679 725.928 470.06 725.929 470.443ZM666.667 467.792L667.228 468.898C667.477 469.375 667.607 469.905 667.607 470.443V500.361H694.117V470.443C694.117 469.905 694.247 469.375 694.495 468.898L695.056 467.792H666.667ZM692.602 470.443V498.847H669.122V470.443C669.122 470.06 669.076 469.679 668.985 469.307H692.738C692.647 469.679 692.602 470.06 692.602 470.443ZM633.341 467.792L633.901 468.898C634.15 469.375 634.28 469.905 634.28 470.443V500.361H660.79V470.443C660.79 469.905 660.92 469.375 661.169 468.898L661.729 467.792H633.341ZM659.275 470.443V498.847H635.795V470.443C635.795 470.06 635.75 469.679 635.659 469.307H659.412C659.321 469.679 659.275 470.06 659.275 470.443V470.443ZM600.014 467.792L600.575 468.898C600.823 469.375 600.953 469.905 600.953 470.443V500.361H627.463V470.443C627.464 469.905 627.594 469.375 627.842 468.898L628.403 467.792H600.014ZM625.948 470.443V498.847H602.468V470.443C602.469 470.06 602.423 469.679 602.332 469.307H626.085C625.994 469.679 625.948 470.06 625.948 470.443V470.443ZM566.687 467.792L567.248 468.898C567.496 469.375 567.626 469.905 567.627 470.443V500.361H594.137V470.443C594.137 469.905 594.267 469.375 594.515 468.898L595.076 467.792H566.687ZM592.622 470.443V498.847H569.142V470.443C569.142 470.06 569.096 469.679 569.005 469.307H592.758C592.667 469.679 592.621 470.06 592.622 470.443ZM533.361 467.792L533.921 468.898C534.17 469.375 534.3 469.905 534.3 470.443V500.361H560.81V470.443C560.81 469.905 560.94 469.375 561.189 468.898L561.749 467.792H533.361ZM559.295 470.443V498.847H535.815V470.443C535.815 470.06 535.769 469.679 535.678 469.307H559.431C559.34 469.679 559.295 470.06 559.295 470.443ZM500.034 467.792L500.594 468.898C500.843 469.375 500.973 469.905 500.973 470.443V500.361H527.483V470.443C527.483 469.905 527.613 469.375 527.862 468.898L528.422 467.792H500.034ZM525.968 470.443V498.847H502.488V470.443C502.488 470.06 502.443 469.679 502.352 469.307H526.105C526.014 469.679 525.968 470.06 525.968 470.443V470.443ZM466.707 467.792L467.268 468.898C467.516 469.375 467.646 469.905 467.646 470.443V500.361H494.156V470.443C494.157 469.905 494.287 469.375 494.535 468.898L495.096 467.792H466.707ZM492.641 470.443V498.847H469.161V470.443C469.162 470.06 469.116 469.679 469.025 469.307H492.778C492.687 469.679 492.641 470.06 492.641 470.443V470.443ZM733.321 467.792L733.882 468.898C734.13 469.375 734.26 469.905 734.26 470.443V500.361H760.77V470.443C760.771 469.905 760.9 469.375 761.149 468.898L761.71 467.792H733.321ZM759.255 470.443V498.847H735.775V470.443C735.776 470.06 735.73 469.679 735.639 469.307H759.392C759.301 469.679 759.255 470.06 759.255 470.443ZM699.994 467.792L700.555 468.898C700.803 469.375 700.933 469.905 700.934 470.443V500.361H727.444V470.443C727.444 469.905 727.574 469.375 727.822 468.898L728.383 467.792H699.994ZM725.929 470.443V498.847H702.448V470.443C702.449 470.06 702.403 469.679 702.312 469.307H726.065C725.974 469.679 725.928 470.06 725.929 470.443ZM666.667 467.792L667.228 468.898C667.477 469.375 667.607 469.905 667.607 470.443V500.361H694.117V470.443C694.117 469.905 694.247 469.375 694.495 468.898L695.056 467.792H666.667ZM692.602 470.443V498.847H669.122V470.443C669.122 470.06 669.076 469.679 668.985 469.307H692.738C692.647 469.679 692.602 470.06 692.602 470.443ZM633.341 467.792L633.901 468.898C634.15 469.375 634.28 469.905 634.28 470.443V500.361H660.79V470.443C660.79 469.905 660.92 469.375 661.169 468.898L661.729 467.792H633.341ZM659.275 470.443V498.847H635.795V470.443C635.795 470.06 635.75 469.679 635.659 469.307H659.412C659.321 469.679 659.275 470.06 659.275 470.443V470.443ZM600.014 467.792L600.575 468.898C600.823 469.375 600.953 469.905 600.953 470.443V500.361H627.463V470.443C627.464 469.905 627.594 469.375 627.842 468.898L628.403 467.792H600.014ZM625.948 470.443V498.847H602.468V470.443C602.469 470.06 602.423 469.679 602.332 469.307H626.085C625.994 469.679 625.948 470.06 625.948 470.443V470.443ZM566.687 467.792L567.248 468.898C567.496 469.375 567.626 469.905 567.627 470.443V500.361H594.137V470.443C594.137 469.905 594.267 469.375 594.515 468.898L595.076 467.792H566.687ZM592.622 470.443V498.847H569.142V470.443C569.142 470.06 569.096 469.679 569.005 469.307H592.758C592.667 469.679 592.621 470.06 592.622 470.443ZM533.361 467.792L533.921 468.898C534.17 469.375 534.3 469.905 534.3 470.443V500.361H560.81V470.443C560.81 469.905 560.94 469.375 561.189 468.898L561.749 467.792H533.361ZM559.295 470.443V498.847H535.815V470.443C535.815 470.06 535.769 469.679 535.678 469.307H559.431C559.34 469.679 559.295 470.06 559.295 470.443ZM500.034 467.792L500.594 468.898C500.843 469.375 500.973 469.905 500.973 470.443V500.361H527.483V470.443C527.483 469.905 527.613 469.375 527.862 468.898L528.422 467.792H500.034ZM525.968 470.443V498.847H502.488V470.443C502.488 470.06 502.443 469.679 502.352 469.307H526.105C526.014 469.679 525.968 470.06 525.968 470.443V470.443ZM466.707 467.792L467.268 468.898C467.516 469.375 467.646 469.905 467.646 470.443V500.361H494.156V470.443C494.157 469.905 494.287 469.375 494.535 468.898L495.096 467.792H466.707ZM492.641 470.443V498.847H469.161V470.443C469.162 470.06 469.116 469.679 469.025 469.307H492.778C492.687 469.679 492.641 470.06 492.641 470.443V470.443ZM733.321 467.792L733.882 468.898C734.13 469.375 734.26 469.905 734.26 470.443V500.361H760.77V470.443C760.771 469.905 760.9 469.375 761.149 468.898L761.71 467.792H733.321ZM759.255 470.443V498.847H735.775V470.443C735.776 470.06 735.73 469.679 735.639 469.307H759.392C759.301 469.679 759.255 470.06 759.255 470.443ZM699.994 467.792L700.555 468.898C700.803 469.375 700.933 469.905 700.934 470.443V500.361H727.444V470.443C727.444 469.905 727.574 469.375 727.822 468.898L728.383 467.792H699.994ZM725.929 470.443V498.847H702.448V470.443C702.449 470.06 702.403 469.679 702.312 469.307H726.065C725.974 469.679 725.928 470.06 725.929 470.443ZM666.667 467.792L667.228 468.898C667.477 469.375 667.607 469.905 667.607 470.443V500.361H694.117V470.443C694.117 469.905 694.247 469.375 694.495 468.898L695.056 467.792H666.667ZM692.602 470.443V498.847H669.122V470.443C669.122 470.06 669.076 469.679 668.985 469.307H692.738C692.647 469.679 692.602 470.06 692.602 470.443ZM633.341 467.792L633.901 468.898C634.15 469.375 634.28 469.905 634.28 470.443V500.361H660.79V470.443C660.79 469.905 660.92 469.375 661.169 468.898L661.729 467.792H633.341ZM659.275 470.443V498.847H635.795V470.443C635.795 470.06 635.75 469.679 635.659 469.307H659.412C659.321 469.679 659.275 470.06 659.275 470.443V470.443ZM600.014 467.792L600.575 468.898C600.823 469.375 600.953 469.905 600.953 470.443V500.361H627.463V470.443C627.464 469.905 627.594 469.375 627.842 468.898L628.403 467.792H600.014ZM625.948 470.443V498.847H602.468V470.443C602.469 470.06 602.423 469.679 602.332 469.307H626.085C625.994 469.679 625.948 470.06 625.948 470.443V470.443ZM566.687 467.792L567.248 468.898C567.496 469.375 567.626 469.905 567.627 470.443V500.361H594.137V470.443C594.137 469.905 594.267 469.375 594.515 468.898L595.076 467.792H566.687ZM592.622 470.443V498.847H569.142V470.443C569.142 470.06 569.096 469.679 569.005 469.307H592.758C592.667 469.679 592.621 470.06 592.622 470.443ZM533.361 467.792L533.921 468.898C534.17 469.375 534.3 469.905 534.3 470.443V500.361H560.81V470.443C560.81 469.905 560.94 469.375 561.189 468.898L561.749 467.792H533.361ZM559.295 470.443V498.847H535.815V470.443C535.815 470.06 535.769 469.679 535.678 469.307H559.431C559.34 469.679 559.295 470.06 559.295 470.443ZM500.034 467.792L500.594 468.898C500.843 469.375 500.973 469.905 500.973 470.443V500.361H527.483V470.443C527.483 469.905 527.613 469.375 527.862 468.898L528.422 467.792H500.034ZM525.968 470.443V498.847H502.488V470.443C502.488 470.06 502.443 469.679 502.352 469.307H526.105C526.014 469.679 525.968 470.06 525.968 470.443V470.443ZM466.707 467.792L467.268 468.898C467.516 469.375 467.646 469.905 467.646 470.443V500.361H494.156V470.443C494.157 469.905 494.287 469.375 494.535 468.898L495.096 467.792H466.707ZM492.641 470.443V498.847H469.161V470.443C469.162 470.06 469.116 469.679 469.025 469.307H492.778C492.687 469.679 492.641 470.06 492.641 470.443V470.443ZM733.321 467.792L733.882 468.898C734.13 469.375 734.26 469.905 734.26 470.443V500.361H760.77V470.443C760.771 469.905 760.9 469.375 761.149 468.898L761.71 467.792H733.321ZM759.255 470.443V498.847H735.775V470.443C735.776 470.06 735.73 469.679 735.639 469.307H759.392C759.301 469.679 759.255 470.06 759.255 470.443ZM700.555 468.898C700.803 469.375 700.933 469.905 700.934 470.443V500.361H727.444V470.443C727.444 469.905 727.574 469.375 727.822 468.898L728.383 467.792H699.994L700.555 468.898ZM726.065 469.307C725.974 469.679 725.928 470.06 725.929 470.443V498.847H702.448V470.443C702.449 470.06 702.403 469.679 702.312 469.307H726.065ZM667.228 468.898C667.477 469.375 667.607 469.905 667.607 470.443V500.361H694.117V470.443C694.117 469.905 694.247 469.375 694.495 468.898L695.056 467.792H666.667L667.228 468.898ZM692.738 469.307C692.647 469.679 692.602 470.06 692.602 470.443V498.847H669.122V470.443C669.122 470.06 669.076 469.679 668.985 469.307H692.738ZM633.901 468.898C634.15 469.375 634.28 469.905 634.28 470.443V500.361H660.79V470.443C660.79 469.905 660.92 469.375 661.169 468.898L661.729 467.792H633.341L633.901 468.898ZM659.412 469.307C659.321 469.679 659.275 470.06 659.275 470.443V498.847H635.795V470.443C635.795 470.06 635.75 469.679 635.659 469.307H659.412ZM600.575 468.898C600.823 469.375 600.953 469.905 600.953 470.443V500.361H627.463V470.443C627.464 469.905 627.594 469.375 627.842 468.898L628.403 467.792H600.014L600.575 468.898ZM626.085 469.307C625.994 469.679 625.948 470.06 625.948 470.443V498.847H602.468V470.443C602.469 470.06 602.423 469.679 602.332 469.307H626.085ZM567.248 468.898C567.496 469.375 567.626 469.905 567.627 470.443V500.361H594.137V470.443C594.137 469.905 594.267 469.375 594.515 468.898L595.076 467.792H566.687L567.248 468.898ZM592.758 469.307C592.667 469.679 592.621 470.06 592.622 470.443V498.847H569.142V470.443C569.142 470.06 569.096 469.679 569.005 469.307H592.758ZM533.921 468.898C534.17 469.375 534.3 469.905 534.3 470.443V500.361H560.81V470.443C560.81 469.905 560.94 469.375 561.189 468.898L561.749 467.792H533.361L533.921 468.898ZM559.431 469.307C559.34 469.679 559.295 470.06 559.295 470.443V498.847H535.815V470.443C535.815 470.06 535.769 469.679 535.678 469.307H559.431ZM500.594 468.898C500.843 469.375 500.973 469.905 500.973 470.443V500.361H527.483V470.443C527.483 469.905 527.613 469.375 527.862 468.898L528.422 467.792H500.034L500.594 468.898ZM526.105 469.307C526.014 469.679 525.968 470.06 525.968 470.443V498.847H502.488V470.443C502.488 470.06 502.443 469.679 502.352 469.307H526.105ZM467.268 468.898C467.516 469.375 467.646 469.905 467.646 470.443V500.361H494.156V470.443C494.157 469.905 494.287 469.375 494.535 468.898L495.096 467.792H466.707L467.268 468.898ZM492.778 469.307C492.687 469.679 492.641 470.06 492.641 470.443V498.847H469.161V470.443C469.162 470.06 469.116 469.679 469.025 469.307H492.778ZM733.882 468.898C734.13 469.375 734.26 469.905 734.26 470.443V500.361H760.77V470.443C760.771 469.905 760.9 469.375 761.149 468.898L761.71 467.792H733.321L733.882 468.898ZM759.392 469.307C759.301 469.679 759.255 470.06 759.255 470.443V498.847H735.775V470.443C735.776 470.06 735.73 469.679 735.639 469.307H759.392ZM700.555 468.898C700.803 469.375 700.933 469.905 700.934 470.443V500.361H727.444V470.443C727.444 469.905 727.574 469.375 727.822 468.898L728.383 467.792H699.994L700.555 468.898ZM726.065 469.307C725.974 469.679 725.928 470.06 725.929 470.443V498.847H702.448V470.443C702.449 470.06 702.403 469.679 702.312 469.307H726.065ZM667.228 468.898C667.477 469.375 667.607 469.905 667.607 470.443V500.361H694.117V470.443C694.117 469.905 694.247 469.375 694.495 468.898L695.056 467.792H666.667L667.228 468.898ZM692.738 469.307C692.647 469.679 692.602 470.06 692.602 470.443V498.847H669.122V470.443C669.122 470.06 669.076 469.679 668.985 469.307H692.738ZM633.901 468.898C634.15 469.375 634.28 469.905 634.28 470.443V500.361H660.79V470.443C660.79 469.905 660.92 469.375 661.169 468.898L661.729 467.792H633.341L633.901 468.898ZM659.412 469.307C659.321 469.679 659.275 470.06 659.275 470.443V498.847H635.795V470.443C635.795 470.06 635.75 469.679 635.659 469.307H659.412ZM600.575 468.898C600.823 469.375 600.953 469.905 600.953 470.443V500.361H627.463V470.443C627.464 469.905 627.594 469.375 627.842 468.898L628.403 467.792H600.014L600.575 468.898ZM626.085 469.307C625.994 469.679 625.948 470.06 625.948 470.443V498.847H602.468V470.443C602.469 470.06 602.423 469.679 602.332 469.307H626.085ZM567.248 468.898C567.496 469.375 567.626 469.905 567.627 470.443V500.361H594.137V470.443C594.137 469.905 594.267 469.375 594.515 468.898L595.076 467.792H566.687L567.248 468.898ZM592.758 469.307C592.667 469.679 592.621 470.06 592.622 470.443V498.847H569.142V470.443C569.142 470.06 569.096 469.679 569.005 469.307H592.758ZM533.921 468.898C534.17 469.375 534.3 469.905 534.3 470.443V500.361H560.81V470.443C560.81 469.905 560.94 469.375 561.189 468.898L561.749 467.792H533.361L533.921 468.898ZM559.431 469.307C559.34 469.679 559.295 470.06 559.295 470.443V498.847H535.815V470.443C535.815 470.06 535.769 469.679 535.678 469.307H559.431ZM500.594 468.898C500.843 469.375 500.973 469.905 500.973 470.443V500.361H527.483V470.443C527.483 469.905 527.613 469.375 527.862 468.898L528.422 467.792H500.034L500.594 468.898ZM526.105 469.307C526.014 469.679 525.968 470.06 525.968 470.443V498.847H502.488V470.443C502.488 470.06 502.443 469.679 502.352 469.307H526.105ZM467.268 468.898C467.516 469.375 467.646 469.905 467.646 470.443V500.361H494.156V470.443C494.157 469.905 494.287 469.375 494.535 468.898L495.096 467.792H466.707L467.268 468.898ZM492.778 469.307C492.687 469.679 492.641 470.06 492.641 470.443V498.847H469.161V470.443C469.162 470.06 469.116 469.679 469.025 469.307H492.778ZM791.067 504.906H782.039C781.541 503.164 780.49 501.63 779.044 500.537C777.599 499.444 775.837 498.851 774.025 498.847H769.102V470.443C769.104 469.833 768.988 469.229 768.761 468.663C769.619 468.158 770.287 467.384 770.662 466.461C771.037 465.538 771.097 464.518 770.835 463.557C770.572 462.597 770 461.749 769.208 461.146C768.416 460.542 767.447 460.216 766.451 460.218H461.966C460.97 460.216 460.001 460.542 459.209 461.146C458.416 461.749 457.845 462.597 457.582 463.557C457.319 464.518 457.38 465.538 457.755 466.461C458.129 467.384 458.798 468.158 459.656 468.663C459.429 469.229 459.313 469.833 459.315 470.443V498.847H454.391C452.579 498.851 450.818 499.444 449.372 500.537C447.927 501.63 446.876 503.164 446.378 504.906H436.592C434.785 504.909 433.053 505.628 431.775 506.906C430.497 508.183 429.778 509.916 429.775 511.723V911.644C429.779 913.45 430.499 915.182 431.776 916.459C433.054 917.737 434.785 918.457 436.592 918.46H791.067C792.874 918.458 794.607 917.739 795.885 916.461C797.162 915.183 797.881 913.451 797.884 911.644V511.723C797.881 509.916 797.162 508.183 795.884 506.906C794.607 505.628 792.874 504.909 791.067 504.906V504.906ZM796.369 911.644C796.368 912.726 796.036 913.782 795.417 914.67C794.798 915.558 793.923 916.236 792.908 916.612C792.32 916.836 791.696 916.949 791.067 916.946H436.592C435.963 916.949 435.339 916.836 434.751 916.612C433.736 916.236 432.861 915.558 432.242 914.67C431.624 913.782 431.291 912.726 431.29 911.644V511.723C431.292 510.317 431.851 508.969 432.845 507.975C433.839 506.981 435.186 506.422 436.592 506.421H447.59L447.711 505.815C448.03 504.277 448.867 502.896 450.084 501.903C451.3 500.91 452.821 500.366 454.391 500.361H460.83V470.443C460.83 469.827 460.997 469.222 461.314 468.693L461.784 467.913L460.928 467.595C460.259 467.353 459.697 466.882 459.341 466.266C458.985 465.65 458.858 464.928 458.982 464.228C459.106 463.527 459.473 462.893 460.019 462.436C460.565 461.98 461.254 461.731 461.966 461.733H766.451C767.162 461.731 767.852 461.98 768.397 462.436C768.943 462.893 769.31 463.527 769.434 464.228C769.558 464.928 769.431 465.65 769.075 466.266C768.719 466.882 768.158 467.353 767.489 467.595L766.633 467.913L767.102 468.693C767.419 469.222 767.587 469.827 767.587 470.443V500.361H774.025C775.595 500.366 777.116 500.91 778.333 501.903C779.549 502.896 780.387 504.277 780.706 505.815L780.827 506.421H791.067C792.473 506.422 793.821 506.981 794.815 507.975C795.809 508.969 796.368 510.317 796.369 511.723L796.369 911.644ZM466.707 467.792L467.268 468.898C467.516 469.375 467.646 469.905 467.646 470.443V500.361H494.156V470.443C494.157 469.905 494.287 469.375 494.535 468.898L495.096 467.792H466.707ZM492.641 470.443V498.847H469.161V470.443C469.162 470.06 469.116 469.679 469.025 469.307H492.778C492.687 469.679 492.641 470.06 492.641 470.443V470.443ZM500.034 467.792L500.594 468.898C500.843 469.375 500.973 469.905 500.973 470.443V500.361H527.483V470.443C527.483 469.905 527.613 469.375 527.862 468.898L528.422 467.792H500.034ZM525.968 470.443V498.847H502.488V470.443C502.488 470.06 502.443 469.679 502.352 469.307H526.105C526.014 469.679 525.968 470.06 525.968 470.443V470.443ZM533.361 467.792L533.921 468.898C534.17 469.375 534.3 469.905 534.3 470.443V500.361H560.81V470.443C560.81 469.905 560.94 469.375 561.189 468.898L561.749 467.792H533.361ZM559.295 470.443V498.847H535.815V470.443C535.815 470.06 535.769 469.679 535.678 469.307H559.431C559.34 469.679 559.295 470.06 559.295 470.443V470.443ZM566.687 467.792L567.248 468.898C567.496 469.375 567.626 469.905 567.627 470.443V500.361H594.137V470.443C594.137 469.905 594.267 469.375 594.515 468.898L595.076 467.792H566.687ZM592.622 470.443V498.847H569.142V470.443C569.142 470.06 569.096 469.679 569.005 469.307H592.758C592.667 469.679 592.621 470.06 592.622 470.443V470.443ZM600.014 467.792L600.575 468.898C600.823 469.375 600.953 469.905 600.953 470.443V500.361H627.463V470.443C627.464 469.905 627.594 469.375 627.842 468.898L628.403 467.792H600.014ZM625.948 470.443V498.847H602.468V470.443C602.469 470.06 602.423 469.679 602.332 469.307H626.085C625.994 469.679 625.948 470.06 625.948 470.443V470.443ZM633.341 467.792L633.901 468.898C634.15 469.375 634.28 469.905 634.28 470.443V500.361H660.79V470.443C660.79 469.905 660.92 469.375 661.169 468.898L661.729 467.792H633.341ZM659.275 470.443V498.847H635.795V470.443C635.795 470.06 635.75 469.679 635.659 469.307H659.412C659.321 469.679 659.275 470.06 659.275 470.443V470.443ZM666.667 467.792L667.228 468.898C667.477 469.375 667.607 469.905 667.607 470.443V500.361H694.117V470.443C694.117 469.905 694.247 469.375 694.495 468.898L695.056 467.792H666.667ZM692.602 470.443V498.847H669.122V470.443C669.122 470.06 669.076 469.679 668.985 469.307H692.738C692.647 469.679 692.602 470.06 692.602 470.443V470.443ZM699.994 467.792L700.555 468.898C700.803 469.375 700.933 469.905 700.934 470.443V500.361H727.444V470.443C727.444 469.905 727.574 469.375 727.822 468.898L728.383 467.792H699.994ZM725.929 470.443V498.847H702.448V470.443C702.449 470.06 702.403 469.679 702.312 469.307H726.065C725.974 469.679 725.928 470.06 725.929 470.443V470.443ZM733.321 467.792L733.882 468.898C734.13 469.375 734.26 469.905 734.26 470.443V500.361H760.77V470.443C760.771 469.905 760.9 469.375 761.149 468.898L761.71 467.792H733.321ZM759.255 470.443V498.847H735.775V470.443C735.776 470.06 735.73 469.679 735.639 469.307H759.392C759.301 469.679 759.255 470.06 759.255 470.443V470.443ZM466.707 467.792L467.268 468.898C467.516 469.375 467.646 469.905 467.646 470.443V500.361H494.156V470.443C494.157 469.905 494.287 469.375 494.535 468.898L495.096 467.792H466.707ZM492.641 470.443V498.847H469.161V470.443C469.162 470.06 469.116 469.679 469.025 469.307H492.778C492.687 469.679 492.641 470.06 492.641 470.443V470.443ZM500.034 467.792L500.594 468.898C500.843 469.375 500.973 469.905 500.973 470.443V500.361H527.483V470.443C527.483 469.905 527.613 469.375 527.862 468.898L528.422 467.792H500.034ZM525.968 470.443V498.847H502.488V470.443C502.488 470.06 502.443 469.679 502.352 469.307H526.105C526.014 469.679 525.968 470.06 525.968 470.443V470.443ZM533.361 467.792L533.921 468.898C534.17 469.375 534.3 469.905 534.3 470.443V500.361H560.81V470.443C560.81 469.905 560.94 469.375 561.189 468.898L561.749 467.792H533.361ZM559.295 470.443V498.847H535.815V470.443C535.815 470.06 535.769 469.679 535.678 469.307H559.431C559.34 469.679 559.295 470.06 559.295 470.443V470.443ZM566.687 467.792L567.248 468.898C567.496 469.375 567.626 469.905 567.627 470.443V500.361H594.137V470.443C594.137 469.905 594.267 469.375 594.515 468.898L595.076 467.792H566.687ZM592.622 470.443V498.847H569.142V470.443C569.142 470.06 569.096 469.679 569.005 469.307H592.758C592.667 469.679 592.621 470.06 592.622 470.443V470.443ZM600.014 467.792L600.575 468.898C600.823 469.375 600.953 469.905 600.953 470.443V500.361H627.463V470.443C627.464 469.905 627.594 469.375 627.842 468.898L628.403 467.792H600.014ZM625.948 470.443V498.847H602.468V470.443C602.469 470.06 602.423 469.679 602.332 469.307H626.085C625.994 469.679 625.948 470.06 625.948 470.443V470.443ZM633.341 467.792L633.901 468.898C634.15 469.375 634.28 469.905 634.28 470.443V500.361H660.79V470.443C660.79 469.905 660.92 469.375 661.169 468.898L661.729 467.792H633.341ZM659.275 470.443V498.847H635.795V470.443C635.795 470.06 635.75 469.679 635.659 469.307H659.412C659.321 469.679 659.275 470.06 659.275 470.443V470.443ZM666.667 467.792L667.228 468.898C667.477 469.375 667.607 469.905 667.607 470.443V500.361H694.117V470.443C694.117 469.905 694.247 469.375 694.495 468.898L695.056 467.792H666.667ZM692.602 470.443V498.847H669.122V470.443C669.122 470.06 669.076 469.679 668.985 469.307H692.738C692.647 469.679 692.602 470.06 692.602 470.443V470.443ZM699.994 467.792L700.555 468.898C700.803 469.375 700.933 469.905 700.934 470.443V500.361H727.444V470.443C727.444 469.905 727.574 469.375 727.822 468.898L728.383 467.792H699.994ZM725.929 470.443V498.847H702.448V470.443C702.449 470.06 702.403 469.679 702.312 469.307H726.065C725.974 469.679 725.928 470.06 725.929 470.443V470.443ZM733.321 467.792L733.882 468.898C734.13 469.375 734.26 469.905 734.26 470.443V500.361H760.77V470.443C760.771 469.905 760.9 469.375 761.149 468.898L761.71 467.792H733.321ZM759.255 470.443V498.847H735.775V470.443C735.776 470.06 735.73 469.679 735.639 469.307H759.392C759.301 469.679 759.255 470.06 759.255 470.443V470.443ZM466.707 467.792L467.268 468.898C467.516 469.375 467.646 469.905 467.646 470.443V500.361H494.156V470.443C494.157 469.905 494.287 469.375 494.535 468.898L495.096 467.792H466.707ZM492.641 470.443V498.847H469.161V470.443C469.162 470.06 469.116 469.679 469.025 469.307H492.778C492.687 469.679 492.641 470.06 492.641 470.443V470.443ZM500.034 467.792L500.594 468.898C500.843 469.375 500.973 469.905 500.973 470.443V500.361H527.483V470.443C527.483 469.905 527.613 469.375 527.862 468.898L528.422 467.792H500.034ZM525.968 470.443V498.847H502.488V470.443C502.488 470.06 502.443 469.679 502.352 469.307H526.105C526.014 469.679 525.968 470.06 525.968 470.443V470.443ZM533.361 467.792L533.921 468.898C534.17 469.375 534.3 469.905 534.3 470.443V500.361H560.81V470.443C560.81 469.905 560.94 469.375 561.189 468.898L561.749 467.792H533.361ZM559.295 470.443V498.847H535.815V470.443C535.815 470.06 535.769 469.679 535.678 469.307H559.431C559.34 469.679 559.295 470.06 559.295 470.443V470.443ZM566.687 467.792L567.248 468.898C567.496 469.375 567.626 469.905 567.627 470.443V500.361H594.137V470.443C594.137 469.905 594.267 469.375 594.515 468.898L595.076 467.792H566.687ZM592.622 470.443V498.847H569.142V470.443C569.142 470.06 569.096 469.679 569.005 469.307H592.758C592.667 469.679 592.621 470.06 592.622 470.443V470.443ZM600.014 467.792L600.575 468.898C600.823 469.375 600.953 469.905 600.953 470.443V500.361H627.463V470.443C627.464 469.905 627.594 469.375 627.842 468.898L628.403 467.792H600.014ZM625.948 470.443V498.847H602.468V470.443C602.469 470.06 602.423 469.679 602.332 469.307H626.085C625.994 469.679 625.948 470.06 625.948 470.443V470.443ZM633.341 467.792L633.901 468.898C634.15 469.375 634.28 469.905 634.28 470.443V500.361H660.79V470.443C660.79 469.905 660.92 469.375 661.169 468.898L661.729 467.792H633.341ZM659.275 470.443V498.847H635.795V470.443C635.795 470.06 635.75 469.679 635.659 469.307H659.412C659.321 469.679 659.275 470.06 659.275 470.443V470.443ZM666.667 467.792L667.228 468.898C667.477 469.375 667.607 469.905 667.607 470.443V500.361H694.117V470.443C694.117 469.905 694.247 469.375 694.495 468.898L695.056 467.792H666.667ZM692.602 470.443V498.847H669.122V470.443C669.122 470.06 669.076 469.679 668.985 469.307H692.738C692.647 469.679 692.602 470.06 692.602 470.443V470.443ZM699.994 467.792L700.555 468.898C700.803 469.375 700.933 469.905 700.934 470.443V500.361H727.444V470.443C727.444 469.905 727.574 469.375 727.822 468.898L728.383 467.792H699.994ZM725.929 470.443V498.847H702.448V470.443C702.449 470.06 702.403 469.679 702.312 469.307H726.065C725.974 469.679 725.928 470.06 725.929 470.443V470.443ZM733.321 467.792L733.882 468.898C734.13 469.375 734.26 469.905 734.26 470.443V500.361H760.77V470.443C760.771 469.905 760.9 469.375 761.149 468.898L761.71 467.792H733.321ZM759.255 470.443V498.847H735.775V470.443C735.776 470.06 735.73 469.679 735.639 469.307H759.392C759.301 469.679 759.255 470.06 759.255 470.443V470.443ZM466.707 467.792L467.268 468.898C467.516 469.375 467.646 469.905 467.646 470.443V500.361H494.156V470.443C494.157 469.905 494.287 469.375 494.535 468.898L495.096 467.792H466.707ZM492.641 470.443V498.847H469.161V470.443C469.162 470.06 469.116 469.679 469.025 469.307H492.778C492.687 469.679 492.641 470.06 492.641 470.443V470.443ZM500.034 467.792L500.594 468.898C500.843 469.375 500.973 469.905 500.973 470.443V500.361H527.483V470.443C527.483 469.905 527.613 469.375 527.862 468.898L528.422 467.792H500.034ZM525.968 470.443V498.847H502.488V470.443C502.488 470.06 502.443 469.679 502.352 469.307H526.105C526.014 469.679 525.968 470.06 525.968 470.443V470.443ZM533.361 467.792L533.921 468.898C534.17 469.375 534.3 469.905 534.3 470.443V500.361H560.81V470.443C560.81 469.905 560.94 469.375 561.189 468.898L561.749 467.792H533.361ZM559.295 470.443V498.847H535.815V470.443C535.815 470.06 535.769 469.679 535.678 469.307H559.431C559.34 469.679 559.295 470.06 559.295 470.443V470.443ZM566.687 467.792L567.248 468.898C567.496 469.375 567.626 469.905 567.627 470.443V500.361H594.137V470.443C594.137 469.905 594.267 469.375 594.515 468.898L595.076 467.792H566.687ZM592.622 470.443V498.847H569.142V470.443C569.142 470.06 569.096 469.679 569.005 469.307H592.758C592.667 469.679 592.621 470.06 592.622 470.443V470.443ZM600.014 467.792L600.575 468.898C600.823 469.375 600.953 469.905 600.953 470.443V500.361H627.463V470.443C627.464 469.905 627.594 469.375 627.842 468.898L628.403 467.792H600.014ZM625.948 470.443V498.847H602.468V470.443C602.469 470.06 602.423 469.679 602.332 469.307H626.085C625.994 469.679 625.948 470.06 625.948 470.443V470.443ZM633.341 467.792L633.901 468.898C634.15 469.375 634.28 469.905 634.28 470.443V500.361H660.79V470.443C660.79 469.905 660.92 469.375 661.169 468.898L661.729 467.792H633.341ZM659.275 470.443V498.847H635.795V470.443C635.795 470.06 635.75 469.679 635.659 469.307H659.412C659.321 469.679 659.275 470.06 659.275 470.443V470.443ZM666.667 467.792L667.228 468.898C667.477 469.375 667.607 469.905 667.607 470.443V500.361H694.117V470.443C694.117 469.905 694.247 469.375 694.495 468.898L695.056 467.792H666.667ZM692.602 470.443V498.847H669.122V470.443C669.122 470.06 669.076 469.679 668.985 469.307H692.738C692.647 469.679 692.602 470.06 692.602 470.443V470.443ZM699.994 467.792L700.555 468.898C700.803 469.375 700.933 469.905 700.934 470.443V500.361H727.444V470.443C727.444 469.905 727.574 469.375 727.822 468.898L728.383 467.792H699.994ZM725.929 470.443V498.847H702.448V470.443C702.449 470.06 702.403 469.679 702.312 469.307H726.065C725.974 469.679 725.928 470.06 725.929 470.443V470.443ZM733.321 467.792L733.882 468.898C734.13 469.375 734.26 469.905 734.26 470.443V500.361H760.77V470.443C760.771 469.905 760.9 469.375 761.149 468.898L761.71 467.792H733.321ZM759.255 470.443V498.847H735.775V470.443C735.776 470.06 735.73 469.679 735.639 469.307H759.392C759.301 469.679 759.255 470.06 759.255 470.443V470.443Z" fill="#3F3D56"/>
<path d="M556.759 600.342H500.904C499.728 600.34 498.6 599.872 497.768 599.041C496.936 598.209 496.468 597.081 496.467 595.905V566.15C496.468 564.974 496.936 563.846 497.768 563.014C498.6 562.182 499.728 561.714 500.904 561.713H556.759C557.935 561.714 559.063 562.182 559.895 563.014C560.727 563.846 561.195 564.974 561.196 566.15V595.905C561.195 597.081 560.727 598.209 559.895 599.041C559.063 599.872 557.935 600.34 556.759 600.342V600.342Z" fill="white"/>
<path d="M641.757 600.342H585.902C584.726 600.34 583.598 599.872 582.766 599.041C581.934 598.209 581.466 597.081 581.465 595.905V566.15C581.466 564.974 581.934 563.846 582.766 563.014C583.598 562.182 584.726 561.714 585.902 561.713H641.757C642.933 561.714 644.061 562.182 644.893 563.014C645.725 563.846 646.193 564.974 646.194 566.15V595.905C646.193 597.081 645.725 598.209 644.893 599.041C644.061 599.872 642.933 600.34 641.757 600.342V600.342Z" fill="white"/>
<path d="M726.755 600.342H670.9C669.724 600.34 668.596 599.872 667.764 599.041C666.932 598.209 666.464 597.081 666.463 595.905V566.15C666.464 564.974 666.932 563.846 667.764 563.014C668.596 562.182 669.724 561.714 670.9 561.713H726.755C727.931 561.714 729.059 562.182 729.891 563.014C730.723 563.846 731.191 564.974 731.192 566.15V595.905C731.191 597.081 730.723 598.209 729.891 599.041C729.059 599.872 727.931 600.34 726.755 600.342V600.342Z" fill="white"/>
<path d="M556.759 699.564H500.904C499.728 699.563 498.6 699.095 497.768 698.263C496.936 697.432 496.468 696.304 496.467 695.127V665.373C496.468 664.196 496.936 663.069 497.768 662.237C498.6 661.405 499.728 660.937 500.904 660.936H556.759C557.935 660.937 559.063 661.405 559.895 662.237C560.727 663.069 561.195 664.196 561.196 665.373V695.127C561.195 696.304 560.727 697.432 559.895 698.263C559.063 699.095 557.935 699.563 556.759 699.564V699.564Z" fill="white"/>
<path d="M641.757 699.564H585.902C584.726 699.563 583.598 699.095 582.766 698.263C581.934 697.432 581.466 696.304 581.465 695.127V665.373C581.466 664.196 581.934 663.069 582.766 662.237C583.598 661.405 584.726 660.937 585.902 660.936H641.757C642.933 660.937 644.061 661.405 644.893 662.237C645.725 663.069 646.193 664.196 646.194 665.373V695.127C646.193 696.304 645.725 697.432 644.893 698.263C644.061 699.095 642.933 699.563 641.757 699.564V699.564Z" fill="white"/>
<path d="M726.755 699.564H670.9C669.724 699.563 668.596 699.095 667.764 698.263C666.932 697.432 666.464 696.304 666.463 695.127V665.373C666.464 664.196 666.932 663.069 667.764 662.237C668.596 661.405 669.724 660.937 670.9 660.936H726.755C727.931 660.937 729.059 661.405 729.891 662.237C730.723 663.069 731.191 664.196 731.192 665.373V695.127C731.191 696.304 730.723 697.432 729.891 698.263C729.059 699.095 727.931 699.563 726.755 699.564V699.564Z" fill="white"/>
<path d="M556.759 798.787H500.904C499.728 798.786 498.6 798.318 497.768 797.486C496.936 796.654 496.468 795.526 496.467 794.35V764.596C496.468 763.419 496.936 762.291 497.768 761.459C498.6 760.628 499.728 760.16 500.904 760.158H556.759C557.935 760.16 559.063 760.628 559.895 761.459C560.727 762.291 561.195 763.419 561.196 764.596V794.35C561.195 795.526 560.727 796.654 559.895 797.486C559.063 798.318 557.935 798.786 556.759 798.787V798.787Z" fill="white"/>
<path d="M641.757 798.787H585.902C584.726 798.786 583.598 798.318 582.766 797.486C581.934 796.654 581.466 795.526 581.465 794.35V764.596C581.466 763.419 581.934 762.291 582.766 761.459C583.598 760.628 584.726 760.16 585.902 760.158H641.757C642.933 760.16 644.061 760.628 644.893 761.459C645.725 762.291 646.193 763.419 646.194 764.596V794.35C646.193 795.526 645.725 796.654 644.893 797.486C644.061 798.318 642.933 798.786 641.757 798.787V798.787Z" fill="white"/>
<path d="M726.755 798.787H670.9C669.724 798.786 668.596 798.318 667.764 797.486C666.932 796.654 666.464 795.526 666.463 794.35V764.596C666.464 763.419 666.932 762.291 667.764 761.459C668.596 760.628 669.724 760.16 670.9 760.158H726.755C727.931 760.16 729.059 760.628 729.891 761.459C730.723 762.291 731.191 763.419 731.192 764.596V794.35C731.191 795.526 730.723 796.654 729.891 797.486C729.059 798.318 727.931 798.786 726.755 798.787V798.787Z" fill="white"/>
<path d="M547.717 604.159H483.012C481.448 604.158 479.949 603.536 478.843 602.43C477.738 601.324 477.116 599.825 477.114 598.262V563.793C477.116 562.229 477.738 560.73 478.843 559.624C479.949 558.519 481.448 557.897 483.012 557.895H547.717C549.28 557.897 550.779 558.519 551.885 559.624C552.99 560.73 553.612 562.229 553.614 563.793V598.262C553.612 599.825 552.99 601.324 551.885 602.43C550.779 603.536 549.28 604.158 547.717 604.159V604.159ZM483.012 559.41C481.85 559.411 480.736 559.873 479.914 560.695C479.092 561.517 478.63 562.631 478.629 563.793V598.262C478.63 599.424 479.092 600.538 479.914 601.359C480.736 602.181 481.85 602.643 483.012 602.645H547.717C548.879 602.643 549.993 602.181 550.814 601.359C551.636 600.538 552.098 599.424 552.099 598.262V563.793C552.098 562.631 551.636 561.517 550.814 560.695C549.993 559.873 548.879 559.411 547.717 559.41H483.012Z" fill="#3F3D56"/>
<path d="M646.182 604.159H581.477C579.913 604.158 578.414 603.536 577.309 602.43C576.203 601.324 575.581 599.825 575.579 598.262V563.793C575.581 562.229 576.203 560.73 577.309 559.624C578.414 558.519 579.913 557.897 581.477 557.895H646.182C647.745 557.897 649.245 558.519 650.35 559.624C651.456 560.73 652.078 562.229 652.079 563.793V598.262C652.078 599.825 651.456 601.324 650.35 602.43C649.245 603.536 647.746 604.158 646.182 604.159ZM581.477 559.41C580.315 559.411 579.201 559.873 578.379 560.695C577.558 561.517 577.096 562.631 577.094 563.793V598.262C577.096 599.424 577.558 600.538 578.379 601.359C579.201 602.181 580.315 602.643 581.477 602.645H646.182C647.344 602.643 648.458 602.181 649.28 601.359C650.101 600.538 650.563 599.424 650.565 598.262V563.793C650.563 562.631 650.101 561.517 649.28 560.695C648.458 559.873 647.344 559.411 646.182 559.41H581.477Z" fill="#3F3D56"/>
<path d="M744.647 604.159H679.942C678.379 604.158 676.88 603.536 675.774 602.43C674.668 601.324 674.047 599.825 674.045 598.262V563.793C674.047 562.229 674.668 560.73 675.774 559.624C676.88 558.519 678.379 557.897 679.942 557.895H744.647C746.211 557.897 747.71 558.519 748.816 559.624C749.921 560.73 750.543 562.229 750.545 563.793V598.262C750.543 599.825 749.921 601.324 748.816 602.43C747.71 603.536 746.211 604.158 744.647 604.159ZM679.942 559.41C678.78 559.411 677.666 559.873 676.845 560.695C676.023 561.517 675.561 562.631 675.56 563.793V598.262C675.561 599.424 676.023 600.538 676.845 601.359C677.666 602.181 678.78 602.643 679.942 602.645H744.647C745.809 602.643 746.923 602.181 747.745 601.359C748.567 600.538 749.029 599.424 749.03 598.262V563.793C749.029 562.631 748.567 561.517 747.745 560.695C746.923 559.873 745.809 559.411 744.647 559.41H679.942Z" fill="#3F3D56"/>
<path d="M547.717 703.382H483.012C481.448 703.38 479.949 702.758 478.843 701.653C477.738 700.547 477.116 699.048 477.114 697.484V663.016C477.116 661.452 477.738 659.953 478.843 658.847C479.949 657.742 481.448 657.12 483.012 657.118H547.717C549.28 657.12 550.779 657.742 551.885 658.847C552.99 659.953 553.612 661.452 553.614 663.016V697.484C553.612 699.048 552.99 700.547 551.885 701.653C550.779 702.758 549.28 703.38 547.717 703.382V703.382ZM483.012 658.633C481.85 658.634 480.736 659.096 479.914 659.918C479.092 660.74 478.63 661.854 478.629 663.016V697.484C478.63 698.646 479.092 699.76 479.914 700.582C480.736 701.404 481.85 701.866 483.012 701.867H547.717C548.879 701.866 549.993 701.404 550.814 700.582C551.636 699.76 552.098 698.646 552.099 697.484V663.016C552.098 661.854 551.636 660.74 550.814 659.918C549.993 659.096 548.879 658.634 547.717 658.633H483.012Z" fill="#3F3D56"/>
<path d="M646.182 703.382H581.477C579.913 703.38 578.414 702.758 577.309 701.653C576.203 700.547 575.581 699.048 575.579 697.484V663.016C575.581 661.452 576.203 659.953 577.309 658.847C578.414 657.742 579.913 657.12 581.477 657.118H646.182C647.745 657.12 649.245 657.742 650.35 658.847C651.456 659.953 652.078 661.452 652.079 663.016V697.484C652.078 699.048 651.456 700.547 650.35 701.653C649.245 702.758 647.746 703.38 646.182 703.382ZM581.477 658.633C580.315 658.634 579.201 659.096 578.379 659.918C577.558 660.74 577.096 661.854 577.094 663.016V697.484C577.096 698.646 577.558 699.76 578.379 700.582C579.201 701.404 580.315 701.866 581.477 701.867H646.182C647.344 701.866 648.458 701.404 649.28 700.582C650.101 699.76 650.563 698.646 650.565 697.484V663.016C650.563 661.854 650.101 660.74 649.28 659.918C648.458 659.096 647.344 658.634 646.182 658.633H581.477Z" fill="#3F3D56"/>
<path d="M744.647 703.382H679.942C678.379 703.38 676.88 702.758 675.774 701.653C674.668 700.547 674.047 699.048 674.045 697.484V663.016C674.047 661.452 674.668 659.953 675.774 658.847C676.88 657.742 678.379 657.12 679.942 657.118H744.647C746.211 657.12 747.71 657.742 748.816 658.847C749.921 659.953 750.543 661.452 750.545 663.016V697.484C750.543 699.048 749.921 700.547 748.816 701.653C747.71 702.758 746.211 703.38 744.647 703.382ZM679.942 658.633C678.78 658.634 677.666 659.096 676.845 659.918C676.023 660.74 675.561 661.854 675.56 663.016V697.484C675.561 698.646 676.023 699.76 676.845 700.582C677.666 701.404 678.78 701.866 679.942 701.867H744.647C745.809 701.866 746.923 701.404 747.745 700.582C748.567 699.76 749.029 698.646 749.03 697.484V663.016C749.029 661.854 748.567 660.74 747.745 659.918C746.923 659.096 745.809 658.634 744.647 658.633H679.942Z" fill="#3F3D56"/>
<path d="M547.717 802.605H483.012C481.448 802.603 479.949 801.981 478.843 800.875C477.738 799.77 477.116 798.271 477.114 796.707V762.238C477.116 760.675 477.738 759.176 478.843 758.07C479.949 756.964 481.448 756.342 483.012 756.341H547.717C549.28 756.342 550.779 756.964 551.885 758.07C552.99 759.176 553.612 760.675 553.614 762.238V796.707C553.612 798.271 552.99 799.77 551.885 800.876C550.779 801.981 549.28 802.603 547.717 802.605V802.605ZM483.012 757.855C481.85 757.857 480.736 758.319 479.914 759.141C479.092 759.962 478.63 761.076 478.629 762.238V796.707C478.63 797.869 479.092 798.983 479.914 799.805C480.736 800.627 481.85 801.089 483.012 801.09H547.717C548.879 801.089 549.993 800.627 550.814 799.805C551.636 798.983 552.098 797.869 552.099 796.707V762.238C552.098 761.076 551.636 759.962 550.814 759.141C549.993 758.319 548.879 757.857 547.717 757.855H483.012Z" fill="#3F3D56"/>
<path d="M646.182 802.605H581.477C579.913 802.603 578.414 801.981 577.309 800.876C576.203 799.77 575.581 798.271 575.579 796.707V762.238C575.581 760.675 576.203 759.176 577.309 758.07C578.414 756.964 579.913 756.342 581.477 756.341H646.182C647.745 756.342 649.245 756.964 650.35 758.07C651.456 759.176 652.078 760.675 652.079 762.238V796.707C652.078 798.271 651.456 799.77 650.35 800.875C649.245 801.981 647.746 802.603 646.182 802.605V802.605ZM581.477 757.855C580.315 757.857 579.201 758.319 578.379 759.141C577.558 759.962 577.096 761.076 577.094 762.238V796.707C577.096 797.869 577.558 798.983 578.379 799.805C579.201 800.627 580.315 801.089 581.477 801.09H646.182C647.344 801.089 648.458 800.627 649.28 799.805C650.101 798.983 650.563 797.869 650.565 796.707V762.238C650.563 761.076 650.101 759.962 649.28 759.141C648.458 758.319 647.344 757.857 646.182 757.855H581.477Z" fill="#3F3D56"/>
<path d="M744.647 802.605H679.942C678.379 802.603 676.88 801.981 675.774 800.876C674.668 799.77 674.047 798.271 674.045 796.707V762.238C674.047 760.675 674.668 759.176 675.774 758.07C676.88 756.964 678.379 756.342 679.942 756.341H744.647C746.211 756.342 747.71 756.964 748.816 758.07C749.921 759.176 750.543 760.675 750.545 762.238V796.707C750.543 798.271 749.921 799.77 748.816 800.875C747.71 801.981 746.211 802.603 744.647 802.605V802.605ZM679.942 757.855C678.78 757.857 677.666 758.319 676.845 759.141C676.023 759.962 675.561 761.076 675.56 762.238V796.707C675.561 797.869 676.023 798.983 676.845 799.805C677.666 800.627 678.78 801.089 679.942 801.09H744.647C745.809 801.089 746.923 800.627 747.745 799.805C748.567 798.983 749.029 797.869 749.03 796.707V762.238C749.029 761.076 748.567 759.962 747.745 759.141C746.923 758.319 745.809 757.857 744.647 757.855H679.942Z" fill="#3F3D56"/>
<path d="M1008.24 919.597H244.757C244.557 919.597 244.364 919.517 244.222 919.375C244.08 919.233 244 919.04 244 918.839C244 918.638 244.08 918.446 244.222 918.304C244.364 918.161 244.557 918.082 244.757 918.082H1008.24C1008.44 918.082 1008.64 918.161 1008.78 918.304C1008.92 918.446 1009 918.638 1009 918.839C1009 919.04 1008.92 919.233 1008.78 919.375C1008.64 919.517 1008.44 919.597 1008.24 919.597Z" fill="#3F3D56"/>
<path d="M652.08 846.286C652.1 844.557 651.434 842.891 650.227 841.654C649.019 840.417 647.37 839.71 645.641 839.688H613.83V918.082H652.08V846.286Z" fill="#3F3D56"/>
<path d="M614.587 917.324H574.822V846.505C574.824 844.597 575.583 842.768 576.932 841.419C578.281 840.07 580.11 839.312 582.018 839.309H614.587V917.324ZM576.337 915.809H613.072V840.824H582.018C580.512 840.826 579.068 841.425 578.003 842.49C576.938 843.555 576.339 844.999 576.337 846.505V915.809Z" fill="#3F3D56"/>
<path d="M579.745 883.619C581 883.619 582.018 882.602 582.018 881.347C582.018 880.092 581 879.074 579.745 879.074C578.49 879.074 577.473 880.092 577.473 881.347C577.473 882.602 578.49 883.619 579.745 883.619Z" fill="#3F3D56"/>
<path d="M1032.36 562.411L1032.36 560.536C1036.09 560.535 1039.87 560.458 1043.61 560.309L1043.68 562.182C1039.92 562.333 1036.11 562.41 1032.36 562.411ZM1021.04 562.194C1017.3 562.047 1013.49 561.823 1009.74 561.527L1009.89 559.658C1013.62 559.953 1017.39 560.175 1021.12 560.321L1021.04 562.194ZM1054.98 561.503L1054.84 559.634C1058.56 559.336 1062.32 558.958 1066.03 558.51L1066.25 560.372C1062.52 560.823 1058.73 561.202 1054.98 561.503V561.503ZM998.475 560.41C994.737 559.962 990.964 559.434 987.262 558.84L987.559 556.989C991.237 557.579 994.984 558.104 998.697 558.548L998.475 560.41ZM1077.46 558.79L1077.16 556.939C1080.84 556.344 1084.56 555.664 1088.23 554.919L1088.6 556.755C1084.91 557.507 1081.16 558.191 1077.46 558.79H1077.46ZM976.121 556.819C972.432 556.072 968.715 555.24 965.071 554.348L965.517 552.526C969.136 553.413 972.829 554.239 976.493 554.981L976.121 556.819ZM1099.65 554.272L1099.2 552.452C1102.83 551.559 1106.48 550.58 1110.06 549.543L1110.58 551.345C1106.98 552.388 1103.3 553.373 1099.65 554.272V554.272ZM954.13 551.432C950.516 550.388 946.877 549.258 943.317 548.074L943.909 546.295C947.446 547.472 951.06 548.594 954.65 549.63L954.13 551.432ZM1121.39 547.973L1120.8 546.196C1124.34 545.013 1127.9 543.742 1131.39 542.415L1132.06 544.167C1128.54 545.503 1124.96 546.783 1121.39 547.973ZM932.619 544.269C929.102 542.936 925.56 541.512 922.09 540.033L922.824 538.309C926.271 539.777 929.79 541.192 933.284 542.515L932.619 544.269ZM1142.53 539.945L1141.79 538.221C1145.22 536.757 1148.66 535.206 1152.02 533.608L1152.83 535.302C1149.44 536.909 1145.98 538.472 1142.53 539.945V539.945ZM911.743 535.376C908.337 533.759 904.924 532.053 901.596 530.304L902.469 528.645C905.774 530.381 909.164 532.077 912.546 533.682L911.743 535.376ZM1162.93 530.244L1162.06 528.585C1165.36 526.848 1168.67 525.022 1171.89 523.159L1172.83 524.781C1169.58 526.657 1166.25 528.495 1162.93 530.244H1162.93ZM891.666 524.827C888.399 522.938 885.136 520.963 881.968 518.956L882.971 517.372C886.118 519.366 889.359 521.328 892.604 523.205L891.666 524.827ZM1182.5 518.923L1181.49 517.339C1184.64 515.348 1187.79 513.262 1190.86 511.137L1191.93 512.679C1188.83 514.818 1185.66 516.919 1182.5 518.923H1182.5ZM872.516 512.701C869.416 510.559 866.324 508.329 863.325 506.073L864.452 504.575C867.431 506.816 870.502 509.031 873.581 511.159L872.516 512.701ZM1201.1 506.061L1199.97 504.563C1202.95 502.328 1205.92 499.994 1208.82 497.627L1210.01 499.079C1207.09 501.462 1204.09 503.811 1201.1 506.061V506.061ZM854.409 499.081C851.499 496.703 848.596 494.233 845.783 491.739L847.026 490.337C849.821 492.813 852.704 495.267 855.595 497.629L854.409 499.081ZM1218.62 491.744L1217.38 490.342C1220.17 487.866 1222.96 485.301 1225.65 482.717L1226.94 484.069C1224.24 486.67 1221.44 489.252 1218.62 491.744H1218.62ZM837.459 484.061C834.755 481.463 832.06 478.77 829.451 476.057L830.802 474.757C833.395 477.453 836.071 480.129 838.758 482.708L837.459 484.061ZM1234.95 476.065L1233.6 474.765C1236.19 472.077 1238.75 469.297 1241.23 466.501L1242.64 467.746C1240.14 470.559 1237.55 473.359 1234.95 476.064V476.065ZM821.771 467.742C819.272 464.924 816.802 462.025 814.431 459.125L815.883 457.939C818.238 460.82 820.691 463.7 823.173 466.497L821.771 467.742ZM1249.98 459.124L1248.53 457.937C1250.9 455.041 1253.24 452.062 1255.48 449.085L1256.98 450.212C1254.72 453.21 1252.37 456.208 1249.98 459.124V459.124ZM807.444 450.226C805.185 447.226 802.956 444.142 800.821 441.056L802.362 439.988C804.484 443.054 806.697 446.119 808.941 449.098L807.444 450.226ZM1263.61 441.025L1262.07 439.959C1264.2 436.88 1266.29 433.722 1268.29 430.573L1269.87 431.576C1267.86 434.746 1265.76 437.925 1263.61 441.025V441.025ZM794.572 431.629C792.563 428.462 790.59 425.21 788.708 421.962L790.33 421.023C792.2 424.248 794.159 427.479 796.155 430.625L794.572 431.629ZM1275.75 421.881L1274.13 420.942C1276 417.699 1277.84 414.381 1279.57 411.081L1281.23 411.954C1279.48 415.276 1277.64 418.616 1275.75 421.881H1275.75ZM783.241 412.067C781.494 408.751 779.791 405.352 778.178 401.965L779.87 401.16C781.473 404.524 783.165 407.9 784.9 411.194L783.241 412.067ZM1286.31 401.81L1284.62 401.005C1286.22 397.629 1287.78 394.173 1289.25 390.731L1290.97 391.467C1289.49 394.931 1287.92 398.412 1286.31 401.81V401.81ZM773.528 391.673C772.052 388.22 770.629 384.697 769.299 381.202L771.051 380.536C772.372 384.006 773.785 387.506 775.252 390.935L773.528 391.673ZM1295.21 380.938L1293.46 380.273C1294.79 376.767 1296.06 373.192 1297.25 369.65L1299.02 370.243C1297.83 373.81 1296.55 377.407 1295.21 380.938V380.938ZM765.488 370.54C764.294 366.976 763.158 363.34 762.111 359.732L763.912 359.21C764.952 362.793 766.08 366.405 767.266 369.945L765.488 370.54ZM1302.39 359.43L1300.59 358.91C1301.62 355.333 1302.6 351.678 1303.49 348.044L1305.31 348.491C1304.41 352.149 1303.43 355.83 1302.39 359.43V359.43ZM759.177 348.796C758.276 345.146 757.439 341.43 756.687 337.751L758.525 337.376C759.271 341.03 760.102 344.722 760.997 348.348L759.177 348.796ZM1307.79 337.444L1305.95 337.071C1306.69 333.419 1307.37 329.697 1307.96 326.007L1309.81 326.305C1309.22 330.02 1308.53 333.767 1307.79 337.444V337.444ZM754.647 326.614C754.046 322.913 753.512 319.141 753.059 315.404L754.92 315.179C755.37 318.891 755.901 322.637 756.498 326.313L754.647 326.614ZM1311.39 315.091L1309.53 314.867C1309.97 311.156 1310.35 307.392 1310.65 303.677L1312.51 303.826C1312.22 307.565 1311.84 311.355 1311.39 315.091V315.091ZM751.922 304.14C751.62 300.396 751.389 296.593 751.237 292.838L753.11 292.762C753.261 296.492 753.49 300.269 753.791 303.989L751.922 304.14ZM1313.19 292.525L1311.32 292.451C1311.46 288.715 1311.54 284.932 1311.54 281.206L1311.54 280.585H1313.41L1313.41 281.202C1313.41 284.956 1313.34 288.764 1313.19 292.525H1313.19ZM752.875 281.517H751L751 281.202C751 277.545 751.071 273.841 751.212 270.199L753.085 270.271C752.946 273.89 752.875 277.569 752.875 281.206L752.875 281.517ZM1311.29 269.343C1311.13 265.62 1310.9 261.843 1310.6 258.116L1312.47 257.964C1312.77 261.715 1313.01 265.517 1313.16 269.265L1311.29 269.343ZM753.742 259.043L751.872 258.897C752.167 255.143 752.542 251.352 752.985 247.629L754.847 247.851C754.406 251.549 754.035 255.315 753.742 259.043ZM1309.46 246.928C1309 243.231 1308.47 239.485 1307.86 235.795L1309.72 235.492C1310.32 239.207 1310.86 242.978 1311.32 246.701L1309.46 246.928ZM756.399 236.712L754.548 236.416C755.142 232.704 755.82 228.955 756.564 225.274L758.401 225.645C757.663 229.302 756.989 233.025 756.399 236.712ZM1305.82 224.734C1305.07 221.071 1304.24 217.381 1303.34 213.766L1305.16 213.314C1306.06 216.954 1306.9 220.669 1307.66 224.357L1305.82 224.734ZM760.848 214.668L759.027 214.223C759.919 210.575 760.898 206.893 761.938 203.28L763.739 203.799C762.706 207.387 761.734 211.044 760.848 214.668H760.848ZM1300.41 202.906C1299.37 199.326 1298.24 195.715 1297.05 192.175L1298.83 191.578C1300.02 195.142 1301.16 198.777 1302.21 202.382L1300.41 202.906ZM767.069 193.056L765.29 192.465C766.476 188.895 767.754 185.295 769.088 181.766L770.842 182.428C769.516 185.935 768.247 189.51 767.069 193.056ZM1293.25 181.589C1291.92 178.101 1290.5 174.604 1289.04 171.194L1290.76 170.455C1292.23 173.888 1293.66 177.409 1295 180.919L1293.25 181.589ZM775.043 171.966L773.318 171.232C774.791 167.769 776.356 164.287 777.97 160.884L779.663 161.686C778.061 165.067 776.506 168.526 775.043 171.966V171.966ZM1284.41 160.973C1282.8 157.613 1281.11 154.239 1279.37 150.945L1281.03 150.069C1282.78 153.386 1284.49 156.782 1286.1 160.166L1284.41 160.973ZM784.696 151.605L783.036 150.734C784.783 147.404 786.624 144.062 788.507 140.801L790.13 141.738C788.26 144.977 786.432 148.297 784.696 151.605L784.696 151.605ZM1273.93 141.125C1272.05 137.897 1270.09 134.669 1268.09 131.528L1269.67 130.522C1271.68 133.684 1273.66 136.934 1275.55 140.183L1273.93 141.125ZM795.957 132.101L794.373 131.099C796.384 127.919 798.487 124.738 800.623 121.643L802.165 122.708C800.043 125.782 797.955 128.942 795.957 132.101V132.101ZM1261.87 122.17C1259.75 119.106 1257.53 116.043 1255.28 113.068L1256.78 111.939C1259.04 114.934 1261.27 118.017 1263.41 121.102L1261.87 122.17ZM808.745 113.575L807.247 112.449C809.506 109.442 811.856 106.441 814.232 103.529L815.685 104.715C813.324 107.607 810.99 110.588 808.745 113.575L808.745 113.575ZM1248.33 104.235C1245.97 101.35 1243.51 98.4732 1241.03 95.685L1242.43 94.4391C1244.93 97.2461 1247.4 100.142 1249.78 103.046L1248.33 104.235ZM822.973 96.1413L821.569 94.8992C824.058 92.0871 826.64 89.2852 829.243 86.571L830.596 87.869C828.01 90.5648 825.445 93.3484 822.973 96.1413V96.1413ZM1233.4 87.4315C1230.8 84.7398 1228.12 82.0678 1225.43 79.4891L1226.73 78.1353C1229.44 80.7313 1232.13 83.4212 1234.75 86.1307L1233.4 87.4315ZM838.543 79.9093L837.243 78.5582C839.948 75.9553 842.745 73.3703 845.555 70.874L846.8 72.2755C844.008 74.7552 841.23 77.3238 838.543 79.9093L838.543 79.9093ZM1217.16 71.87C1214.35 69.3934 1211.47 66.9429 1208.58 64.5872L1209.76 63.134C1212.67 65.5058 1215.58 67.9723 1218.4 70.4658L1217.16 71.87ZM855.354 64.9799L854.166 63.5299C857.075 61.1476 860.068 58.7955 863.062 56.5382L864.191 58.0349C861.216 60.2771 858.243 62.6141 855.354 64.9799L855.354 64.9799ZM1199.71 57.6527C1196.72 55.4082 1193.65 53.1962 1190.58 51.078L1191.64 49.5346C1194.73 51.667 1197.83 53.8937 1200.84 56.1533L1199.71 57.6527ZM873.298 51.4492L872.23 49.9086C875.32 47.767 878.491 45.663 881.653 43.6547L882.658 45.2374C879.517 47.2319 876.367 49.3218 873.298 51.4491V51.4492ZM1181.18 44.874C1178.02 42.8775 1174.78 40.919 1171.54 39.053L1172.48 37.4292C1175.73 39.3075 1179 41.2793 1182.18 43.289L1181.18 44.874ZM892.258 39.4087L891.317 37.7866C894.559 35.9069 897.886 34.0651 901.206 32.3136L902.081 33.9713C898.783 35.7114 895.478 37.5408 892.258 39.4086V39.4087ZM1161.67 33.6239C1158.36 31.8893 1154.97 30.1981 1151.59 28.5975L1152.39 26.9032C1155.79 28.5143 1159.21 30.2168 1162.54 31.9634L1161.67 33.6239ZM912.112 28.9371L911.305 27.2446C914.686 25.633 918.148 24.0668 921.597 22.5894L922.335 24.3126C918.909 25.7799 915.47 27.3356 912.112 28.9371V28.9371ZM1141.3 23.9826C1137.86 22.5194 1134.34 21.1083 1130.84 19.7874L1131.5 18.0335C1135.02 19.3631 1138.57 20.7843 1142.04 22.2571L1141.3 23.9826ZM932.732 20.1064L932.065 18.3544C935.572 17.017 939.159 15.7328 942.724 14.5368L943.32 16.3145C939.779 17.5021 936.217 18.7781 932.732 20.1064V20.1064ZM1120.21 16.0197C1116.67 14.8448 1113.05 13.7267 1109.46 12.6964L1109.98 10.8949C1113.59 11.932 1117.23 13.0575 1120.8 14.2402L1120.21 16.0197ZM954.054 12.9541L953.531 11.1544C957.136 10.1054 960.815 9.11589 964.465 8.21286L964.915 10.0326C961.29 10.9296 957.635 11.9128 954.054 12.954V12.9541ZM1098.59 9.81201C1094.97 8.92914 1091.28 8.10759 1087.62 7.37024L1087.99 5.53215C1091.67 6.27453 1095.39 7.10202 1099.04 7.9904L1098.59 9.81201ZM975.885 7.5551L975.509 5.71883C979.184 4.96637 982.931 4.27803 986.645 3.6725L986.947 5.52249C983.257 6.12432 979.535 6.80813 975.885 7.5551V7.5551ZM1076.55 5.37465C1072.86 4.78697 1069.11 4.26612 1065.41 3.82765L1065.63 1.96576C1069.36 2.40743 1073.13 2.93149 1076.84 3.52376L1076.55 5.37465ZM998.081 3.93796L997.854 2.07695C1001.58 1.62295 1005.37 1.23795 1009.12 0.934097L1009.27 2.8024C1005.55 3.10495 1001.78 3.48668 998.081 3.93796H998.081ZM1054.21 2.72919C1050.5 2.43947 1046.72 2.22069 1042.99 2.07927L1043.06 0.20549C1046.82 0.34829 1050.62 0.56848 1054.36 0.85997L1054.21 2.72919ZM1020.5 2.11542L1020.42 0.242569C1024.17 0.087869 1027.98 0.00639 1031.74 0L1031.74 1.87468C1028 1.88109 1024.22 1.9621 1020.5 2.11542H1020.5Z" fill="#CCCCCC"/>
<path d="M932.907 456.7C1032.82 456.7 1113.82 375.704 1113.82 275.791C1113.82 175.877 1032.82 94.8817 932.907 94.8817C832.994 94.8817 751.998 175.877 751.998 275.791C751.998 375.704 832.994 456.7 932.907 456.7Z" fill="#3F3D56"/>
<path d="M868.698 407.957C921.761 407.957 964.777 348.784 964.777 275.791C964.777 202.797 921.761 143.624 868.698 143.624C815.636 143.624 772.62 202.797 772.62 275.791C772.62 348.784 815.636 407.957 868.698 407.957Z" fill="white"/>
<path d="M836.849 345.971C851.659 345.971 863.664 327.086 863.664 303.791C863.664 280.495 851.659 261.61 836.849 261.61C822.04 261.61 810.035 280.495 810.035 303.791C810.035 327.086 822.04 345.971 836.849 345.971Z" fill="#3F3D56"/>
<path d="M408.704 419.161C418.54 419.161 426.514 411.187 426.514 401.351C426.514 391.515 418.54 383.541 408.704 383.541C398.868 383.541 390.895 391.515 390.895 401.351C390.895 411.187 398.868 419.161 408.704 419.161Z" fill="white"/>
</svg>
